<svg width="16" height="17" viewBox="0 0 16 17" fill="none" xmlns="http://www.w3.org/2000/svg">
<path fill-rule="evenodd" clip-rule="evenodd" d="M5.78101 9.32654C5.77969 9.22928 5.73991 9.1365 5.67039 9.06848C5.60088 9.00046 5.50726 8.9627 5.41 8.9635H4.11C4.01257 8.96243 3.91869 9.00006 3.84895 9.06811C3.77922 9.13616 3.73932 9.22911 3.73801 9.32654V10.5995C3.73866 10.6477 3.74879 10.6953 3.76784 10.7396C3.78689 10.7838 3.81447 10.8239 3.84901 10.8575C3.88356 10.8912 3.92438 10.9176 3.96916 10.9355C4.01394 10.9533 4.0618 10.9621 4.11 10.9615H5.41C5.45815 10.9621 5.50595 10.9533 5.55067 10.9355C5.5954 10.9176 5.63616 10.8911 5.67062 10.8575C5.70509 10.8239 5.73259 10.7838 5.75153 10.7395C5.77047 10.6952 5.78048 10.6476 5.78101 10.5995V9.33148V9.32654ZM9.02 9.32654C9.01843 9.22937 8.97858 9.13669 8.90912 9.06872C8.83966 9.00076 8.74618 8.96296 8.649 8.9635H7.349C7.3008 8.96297 7.25298 8.97197 7.20825 8.98993C7.16352 9.00788 7.12277 9.03447 7.08832 9.06817C7.05387 9.10188 7.02639 9.14201 7.00746 9.18634C6.98853 9.23067 6.97852 9.27834 6.978 9.32654V10.5995C6.97852 10.6476 6.98854 10.6952 7.00748 10.7395C7.02642 10.7838 7.05391 10.8239 7.08838 10.8575C7.12284 10.8911 7.16361 10.9176 7.20833 10.9355C7.25305 10.9533 7.30085 10.9621 7.349 10.9615H8.649C8.74617 10.9626 8.83978 10.9251 8.90933 10.8572C8.97888 10.7894 9.01869 10.6966 9.02 10.5995V9.33148V9.32654ZM12.258 9.32654C12.2567 9.22928 12.2169 9.1365 12.1474 9.06848C12.0779 9.00046 11.9843 8.9627 11.887 8.9635H10.587C10.5388 8.96297 10.491 8.97197 10.4462 8.98993C10.4015 9.00788 10.3608 9.03447 10.3263 9.06817C10.2919 9.10188 10.2644 9.14201 10.2455 9.18634C10.2265 9.23067 10.2165 9.27834 10.216 9.32654V10.5995C10.2165 10.6476 10.2265 10.6952 10.2455 10.7395C10.2644 10.7838 10.2919 10.8239 10.3264 10.8575C10.3608 10.8911 10.4016 10.9176 10.4463 10.9355C10.491 10.9533 10.5389 10.9621 10.587 10.9615H11.887C11.9351 10.9621 11.983 10.9533 12.0277 10.9355C12.0724 10.9176 12.1132 10.8911 12.1476 10.8575C12.1821 10.8239 12.2096 10.7838 12.2285 10.7395C12.2475 10.6952 12.2575 10.6476 12.258 10.5995V9.33148V9.32654ZM5.78101 12.4935C5.77969 12.3964 5.73988 12.3037 5.67033 12.2358C5.60079 12.168 5.50717 12.1305 5.41 12.1315H4.11C4.0618 12.1309 4.01394 12.1397 3.96916 12.1575C3.92438 12.1754 3.88356 12.2019 3.84901 12.2355C3.81447 12.2691 3.78689 12.3092 3.76784 12.3535C3.74879 12.3977 3.73866 12.4453 3.73801 12.4935V13.7615C3.73932 13.859 3.77922 13.9518 3.84895 14.0199C3.91869 14.0879 4.01257 14.1256 4.11 14.1245H5.41C5.50726 14.1253 5.60088 14.0876 5.67039 14.0195C5.73991 13.9515 5.77969 13.8588 5.78101 13.7615V12.4935ZM9.02 12.4935C9.01842 12.3965 8.97853 12.3039 8.90904 12.2361C8.83955 12.1683 8.74609 12.1307 8.649 12.1315H7.349C7.30085 12.1309 7.25305 12.1397 7.20833 12.1575C7.16361 12.1754 7.12284 12.2019 7.08838 12.2355C7.05391 12.2692 7.02642 12.3092 7.00748 12.3535C6.98854 12.3978 6.97852 12.4454 6.978 12.4935V13.7615C6.97852 13.8097 6.98853 13.8573 7.00746 13.9017C7.02639 13.946 7.05387 13.9861 7.08832 14.0198C7.12277 14.0535 7.16352 14.0801 7.20825 14.0981C7.25298 14.116 7.3008 14.125 7.349 14.1245H8.649C8.74618 14.125 8.83966 14.0872 8.90912 14.0193C8.97858 13.9513 9.01843 13.8587 9.02 13.7615V12.4935ZM12.258 12.4935C12.2567 12.3964 12.2169 12.3037 12.1473 12.2358C12.0778 12.168 11.9842 12.1305 11.887 12.1315H10.587C10.5389 12.1309 10.491 12.1397 10.4463 12.1575C10.4016 12.1754 10.3608 12.2019 10.3264 12.2355C10.2919 12.2692 10.2644 12.3092 10.2455 12.3535C10.2265 12.3978 10.2165 12.4454 10.216 12.4935V13.7615C10.2165 13.8097 10.2265 13.8573 10.2455 13.9017C10.2644 13.946 10.2919 13.9861 10.3263 14.0198C10.3608 14.0535 10.4015 14.0801 10.4462 14.0981C10.491 14.116 10.5388 14.125 10.587 14.1245H11.887C11.9843 14.1253 12.0779 14.0876 12.1474 14.0195C12.2169 13.9515 12.2567 13.8588 12.258 13.7615V12.4935ZM14.575 2.28149V4.21649C14.5695 4.64067 14.3957 5.04533 14.0919 5.34143C13.7881 5.63753 13.3792 5.80087 12.955 5.79553H11.934C11.5086 5.80168 11.0982 5.63888 10.7926 5.34289C10.4871 5.0469 10.3114 4.64183 10.304 4.21649V2.27453H5.7V4.21649C5.69289 4.64174 5.5174 5.04681 5.21201 5.34283C4.90661 5.63885 4.49627 5.80168 4.071 5.79553H3.048C2.62382 5.80087 2.21487 5.63753 1.91109 5.34143C1.6073 5.04533 1.43353 4.64067 1.42799 4.21649V2.28149C1.05058 2.28845 0.690645 2.44184 0.424194 2.70923C0.157744 2.97661 0.00564335 3.3371 0 3.71454V15.0575C0.00396031 15.443 0.160588 15.8113 0.435562 16.0816C0.710537 16.3519 1.08143 16.5022 1.467 16.4995H14.533C14.9183 16.5014 15.2888 16.3509 15.5636 16.0807C15.8384 15.8106 15.9953 15.4428 16 15.0575V3.71454C15.9944 3.33761 15.8427 2.97757 15.5769 2.71026C15.3111 2.44296 14.9519 2.28922 14.575 2.28149ZM14.1 14.3505C14.0991 14.4329 14.082 14.5142 14.0496 14.5899C14.0172 14.6656 13.9703 14.7342 13.9114 14.7918C13.8525 14.8494 13.7829 14.8948 13.7065 14.9255C13.6301 14.9561 13.5483 14.9714 13.466 14.9705H2.5C2.41766 14.9714 2.33595 14.9561 2.25952 14.9255C2.1831 14.8948 2.11345 14.8494 2.05458 14.7918C1.99571 14.7342 1.94875 14.6656 1.9164 14.5899C1.88404 14.5142 1.86691 14.4329 1.866 14.3505V8.49249C1.86784 8.32611 1.93565 8.16727 2.05452 8.05084C2.17339 7.93441 2.33361 7.86992 2.5 7.87152H13.463C13.6294 7.86992 13.7896 7.93441 13.9085 8.05084C14.0273 8.16727 14.0952 8.32611 14.097 8.49249V14.3505H14.1ZM3.039 4.75848H4.05099C4.1967 4.76008 4.33709 4.70385 4.44133 4.60205C4.54557 4.50024 4.60515 4.36121 4.60699 4.21551V1.04254C4.60608 0.970442 4.59098 0.899203 4.56255 0.832945C4.53411 0.766686 4.4929 0.7067 4.44127 0.65637C4.38964 0.606039 4.32859 0.566348 4.26163 0.53961C4.19466 0.512871 4.12309 0.499561 4.05099 0.500486H3.03999C2.89456 0.498885 2.75443 0.555056 2.65038 0.656675C2.54632 0.758294 2.48685 0.897107 2.485 1.04254V4.21551C2.48578 4.28761 2.50077 4.35886 2.52908 4.42517C2.5574 4.49148 2.59849 4.55156 2.65002 4.60199C2.70156 4.65241 2.76254 4.69219 2.82945 4.71905C2.89636 4.74591 2.9669 4.75927 3.039 4.75848ZM11.919 4.75848H12.93C13.0758 4.76008 13.2163 4.70389 13.3207 4.60211C13.4251 4.50033 13.4849 4.3613 13.487 4.21551V1.04254C13.4849 0.896841 13.425 0.757928 13.3206 0.656309C13.2162 0.554689 13.0757 0.498616 12.93 0.500486H11.92C11.848 0.499429 11.7764 0.51265 11.7095 0.539365C11.6426 0.566081 11.5816 0.605804 11.5302 0.656187C11.4787 0.706569 11.4376 0.766637 11.4095 0.832945C11.3813 0.899252 11.3665 0.970497 11.366 1.04254V4.21551C11.3665 4.2876 11.3813 4.35887 11.4095 4.42523C11.4376 4.49159 11.4786 4.55171 11.5301 4.60217C11.5816 4.65263 11.6425 4.69247 11.7094 4.7193C11.7764 4.74612 11.8469 4.75941 11.919 4.75848Z" fill="#CED0D4"/>
</svg>
