<svg width="11" height="15" viewBox="0 0 11 15" fill="none" xmlns="http://www.w3.org/2000/svg">
<path fill-rule="evenodd" clip-rule="evenodd" d="M5.498 0.50251C6.95413 0.500121 8.35159 1.07621 9.38301 2.10407C10.4144 3.13193 10.9954 4.5274 10.998 5.98353C10.998 10.4685 5.534 14.4975 5.534 14.4975C5.534 14.4975 0 10.3775 0 5.98353C0.00265004 4.52774 0.583299 3.13261 1.61429 2.1048C2.64528 1.077 4.04222 0.500652 5.498 0.50251ZM5.498 2.62751C6.13545 2.63737 6.75576 2.83545 7.28099 3.19678C7.80622 3.55812 8.21293 4.0666 8.45003 4.65839C8.68712 5.25019 8.74403 5.89886 8.61357 6.5229C8.48312 7.14693 8.17112 7.71852 7.71681 8.16578C7.2625 8.61303 6.68615 8.91602 6.06015 9.03669C5.43415 9.15736 4.78645 9.09033 4.19844 8.844C3.61043 8.59767 3.10834 8.18305 2.75526 7.65223C2.40219 7.12141 2.21388 6.49806 2.214 5.86054C2.21727 5.43252 2.30484 5.00934 2.47173 4.61518C2.63861 4.22102 2.88153 3.8636 3.1866 3.56336C3.49167 3.26312 3.85291 3.02594 4.24968 2.86536C4.64645 2.70479 5.06998 2.62395 5.498 2.62751Z" fill="#FF5530"/>
</svg>
