<svg width="18" height="15" viewBox="0 0 18 15" fill="none" xmlns="http://www.w3.org/2000/svg">
<path fill-rule="evenodd" clip-rule="evenodd" d="M3.63926 8.77963C3.63849 8.623 3.66925 8.46782 3.72973 8.32333C3.7902 8.17884 3.87914 8.04801 3.99125 7.93863L10.7683 1.33859C11.0485 1.0781 11.3765 0.874368 11.7342 0.738614C12.0851 0.587866 12.4615 0.50505 12.8433 0.494595H16.7862C16.9447 0.492652 17.102 0.52272 17.2486 0.583035C17.3951 0.64335 17.528 0.732682 17.6393 0.845609C17.7541 0.951451 17.8456 1.08013 17.9077 1.22342C17.9699 1.3667 18.0014 1.52139 18.0002 1.67758V5.52157C17.99 5.8951 17.9046 6.2628 17.7492 6.60263C17.6117 6.95224 17.4037 7.26981 17.1383 7.53561L10.3603 14.1526C10.2483 14.264 10.1151 14.3517 9.96857 14.4104C9.82201 14.4692 9.66512 14.4978 9.50725 14.4946C9.18624 14.4977 8.87678 14.375 8.64525 14.1526L3.99125 9.60562C3.87867 9.49974 3.78927 9.37169 3.72869 9.22952C3.6681 9.08735 3.63766 8.93416 3.63926 8.77963ZM14.1092 4.29263C14.3392 4.5152 14.6467 4.63962 14.9668 4.63962C15.2868 4.63962 15.5943 4.5152 15.8243 4.29263C15.9365 4.18425 16.0258 4.05436 16.0868 3.91073C16.1478 3.7671 16.1792 3.61261 16.1792 3.45657C16.1792 3.30053 16.1478 3.1461 16.0868 3.00247C16.0258 2.85884 15.9365 2.72895 15.8243 2.62057C15.5943 2.398 15.2868 2.27359 14.9668 2.27359C14.6467 2.27359 14.3392 2.398 14.1092 2.62057C13.9967 2.7288 13.9072 2.85863 13.8461 3.00229C13.7849 3.14594 13.7534 3.30045 13.7534 3.45657C13.7534 3.61269 13.7849 3.76727 13.8461 3.91092C13.9072 4.05457 13.9967 4.1844 14.1092 4.29263ZM0.352255 7.93863L7.12826 1.33859C7.40872 1.07789 7.73712 0.874139 8.09525 0.738614C8.44515 0.589776 8.82011 0.508662 9.20025 0.4996H11.3243C10.9428 0.509866 10.5668 0.592693 10.2163 0.743619C9.858 0.878892 9.52953 1.08267 9.24924 1.34359L2.47124 7.94357C2.35927 8.053 2.27048 8.18391 2.21018 8.3284C2.14988 8.47289 2.11929 8.62801 2.12024 8.78457C2.11776 8.93988 2.1477 9.094 2.20814 9.23709C2.26857 9.38017 2.35817 9.50913 2.47124 9.61563L6.92725 13.9586C6.77801 14.117 6.61012 14.2567 6.42725 14.3746C6.25576 14.4677 6.06224 14.5127 5.86725 14.5046C5.54623 14.5079 5.23673 14.3851 5.00525 14.1626L0.352255 9.61563C0.238176 9.5088 0.147873 9.37911 0.0872249 9.23507C0.026577 9.09103 -0.00306114 8.93588 0.000249771 8.77963C-0.000804798 8.62296 0.0298312 8.46767 0.0903224 8.32315C0.150814 8.17862 0.239916 8.04784 0.352255 7.93863Z" fill="#CED0D4"/>
</svg>
